<svg width="100" height="100" viewBox="0 0 100 100" xmlns="http://www.w3.org/2000/svg">
  <!-- Cercle extérieur rouge -->
  <circle cx="50" cy="50" r="48" fill="#FF0000" stroke="#FFFFFF" stroke-width="1"/>
  
  <!-- Cercle intérieur blanc -->
  <circle cx="50" cy="50" r="40" fill="#FFFFFF"/>
  
  <!-- Fond noir pour les lettres -->
  <circle cx="50" cy="50" r="35" fill="#000000"/>
  
  <!-- Lettre T en rouge -->
  <g fill="#FF0000">
    <!-- Barre horizontale du T -->
    <path d="M 20 30 L 45 30 L 45 38 L 35 38 L 35 65 L 30 65 L 30 38 L 20 38 Z"/>
  </g>
  
  <!-- Lettre S en rouge -->
  <g fill="#FF0000">
    <!-- Forme du S stylisé -->
    <path d="M 55 30 L 80 30 L 80 38 L 60 38 L 60 42 L 75 42 L 75 50 L 60 50 L 60 58 L 80 58 L 80 65 L 55 65 L 55 58 L 70 58 L 70 54 L 55 54 L 55 46 L 70 46 L 70 38 L 55 38 Z"/>
  </g>
</svg>
